<mxfile host="65bd71144e">
    <diagram id="Mq88om0MZ4iqaWooZR1S" name="PÃ¡gina-1">
        <mxGraphModel dx="1236" dy="620" grid="1" gridSize="10" guides="1" tooltips="1" connect="1" arrows="1" fold="1" page="1" pageScale="1" pageWidth="827" pageHeight="1169" math="0" shadow="0">
            <root>
                <mxCell id="0"/>
                <mxCell id="1" parent="0"/>
                <mxCell id="19" style="edgeStyle=none;html=1;exitX=0;exitY=0;exitDx=0;exitDy=0;entryX=0.5;entryY=1;entryDx=0;entryDy=0;" parent="1" source="2" target="18" edge="1">
                    <mxGeometry relative="1" as="geometry"/>
                </mxCell>
                <mxCell id="2" value="Estudiante" style="rounded=0;whiteSpace=wrap;html=1;" parent="1" vertex="1">
                    <mxGeometry x="160" y="230" width="120" height="60" as="geometry"/>
                </mxCell>
                <mxCell id="3" value="Curso" style="rounded=0;whiteSpace=wrap;html=1;" parent="1" vertex="1">
                    <mxGeometry x="414" y="230" width="120" height="60" as="geometry"/>
                </mxCell>
                <mxCell id="4" value="Profesor" style="rounded=0;whiteSpace=wrap;html=1;" parent="1" vertex="1">
                    <mxGeometry x="414" y="516" width="120" height="60" as="geometry"/>
                </mxCell>
                <mxCell id="5" value="Departamento" style="rounded=0;whiteSpace=wrap;html=1;" parent="1" vertex="1">
                    <mxGeometry x="166" y="516" width="120" height="60" as="geometry"/>
                </mxCell>
                <mxCell id="7" value="" style="endArrow=none;html=1;exitX=1.005;exitY=0.52;exitDx=0;exitDy=0;exitPerimeter=0;entryX=0;entryY=0.5;entryDx=0;entryDy=0;" parent="1" source="2" target="3" edge="1">
                    <mxGeometry width="50" height="50" relative="1" as="geometry">
                        <mxPoint x="380" y="260" as="sourcePoint"/>
                        <mxPoint x="430" y="210" as="targetPoint"/>
                    </mxGeometry>
                </mxCell>
                <mxCell id="8" value="" style="endArrow=none;html=1;exitX=0.5;exitY=1;exitDx=0;exitDy=0;entryX=0.5;entryY=0;entryDx=0;entryDy=0;startArrow=none;" parent="1" source="54" target="4" edge="1">
                    <mxGeometry width="50" height="50" relative="1" as="geometry">
                        <mxPoint x="470" y="496.0999999999999" as="sourcePoint"/>
                        <mxPoint x="669.4" y="446" as="targetPoint"/>
                    </mxGeometry>
                </mxCell>
                <mxCell id="10" value="" style="endArrow=none;html=1;exitX=1;exitY=0.5;exitDx=0;exitDy=0;entryX=0;entryY=0.5;entryDx=0;entryDy=0;" parent="1" source="5" target="4" edge="1">
                    <mxGeometry width="50" height="50" relative="1" as="geometry">
                        <mxPoint x="480" y="402" as="sourcePoint"/>
                        <mxPoint x="480" y="492" as="targetPoint"/>
                    </mxGeometry>
                </mxCell>
                <mxCell id="11" value="1:N" style="text;html=1;align=center;verticalAlign=middle;resizable=0;points=[];autosize=1;strokeColor=none;fillColor=none;" parent="1" vertex="1">
                    <mxGeometry x="330" y="190" width="40" height="30" as="geometry"/>
                </mxCell>
                <mxCell id="13" value="&lt;span style=&quot;color: rgba(0, 0, 0, 0); font-family: monospace; font-size: 0px; text-align: start;&quot;&gt;%3CmxGraphModel%3E%3Croot%3E%3CmxCell%20id%3D%220%22%2F%3E%3CmxCell%20id%3D%221%22%20parent%3D%220%22%2F%3E%3CmxCell%20id%3D%222%22%20value%3D%22N%3A1%22%20style%3D%22text%3Bhtml%3D1%3Balign%3Dcenter%3BverticalAlign%3Dmiddle%3Bresizable%3D0%3Bpoints%3D%5B%5D%3Bautosize%3D1%3BstrokeColor%3Dnone%3BfillColor%3Dnone%3B%22%20vertex%3D%221%22%20parent%3D%221%22%3E%3CmxGeometry%20x%3D%22330%22%20y%3D%22230%22%20width%3D%2240%22%20height%3D%2230%22%20as%3D%22geometry%22%2F%3E%3C%2FmxCell%3E%3C%2Froot%3E%3C%2FmxGraphModel%3E&lt;/span&gt;" style="text;html=1;align=center;verticalAlign=middle;resizable=0;points=[];autosize=1;strokeColor=none;fillColor=none;" parent="1" vertex="1">
                    <mxGeometry x="490" y="315" width="20" height="30" as="geometry"/>
                </mxCell>
                <mxCell id="16" value="N:N" style="text;html=1;align=center;verticalAlign=middle;resizable=0;points=[];autosize=1;strokeColor=none;fillColor=none;rotation=90;" parent="1" vertex="1">
                    <mxGeometry x="513.52" y="405" width="40" height="30" as="geometry"/>
                </mxCell>
                <mxCell id="17" value="N:1" style="text;html=1;align=center;verticalAlign=middle;resizable=0;points=[];autosize=1;strokeColor=none;fillColor=none;rotation=0;" parent="1" vertex="1">
                    <mxGeometry x="326" y="592" width="40" height="30" as="geometry"/>
                </mxCell>
                <mxCell id="18" value="StudentID" style="ellipse;whiteSpace=wrap;html=1;fontStyle=4" parent="1" vertex="1">
                    <mxGeometry x="90" y="160" width="80" height="40" as="geometry"/>
                </mxCell>
                <mxCell id="20" style="edgeStyle=none;html=1;exitX=0.5;exitY=0;exitDx=0;exitDy=0;entryX=0.5;entryY=1;entryDx=0;entryDy=0;" parent="1" source="2" target="21" edge="1">
                    <mxGeometry relative="1" as="geometry">
                        <mxPoint x="240" y="220" as="sourcePoint"/>
                    </mxGeometry>
                </mxCell>
                <mxCell id="21" value="FirstName" style="ellipse;whiteSpace=wrap;html=1;" parent="1" vertex="1">
                    <mxGeometry x="170" y="150" width="80" height="40" as="geometry"/>
                </mxCell>
                <mxCell id="22" style="edgeStyle=none;html=1;exitX=0;exitY=0.5;exitDx=0;exitDy=0;entryX=1;entryY=0.5;entryDx=0;entryDy=0;" parent="1" source="2" target="23" edge="1">
                    <mxGeometry relative="1" as="geometry">
                        <mxPoint x="100" y="315" as="sourcePoint"/>
                    </mxGeometry>
                </mxCell>
                <mxCell id="23" value="LastName" style="ellipse;whiteSpace=wrap;html=1;" parent="1" vertex="1">
                    <mxGeometry x="50" y="235" width="80" height="45" as="geometry"/>
                </mxCell>
                <mxCell id="26" style="edgeStyle=none;html=1;exitX=0.25;exitY=1;exitDx=0;exitDy=0;entryX=0.986;entryY=0.37;entryDx=0;entryDy=0;entryPerimeter=0;" parent="1" target="27" edge="1">
                    <mxGeometry relative="1" as="geometry">
                        <mxPoint x="160" y="290" as="sourcePoint"/>
                    </mxGeometry>
                </mxCell>
                <mxCell id="27" value="DateOfBirth" style="ellipse;whiteSpace=wrap;html=1;" parent="1" vertex="1">
                    <mxGeometry x="50" y="290" width="80" height="45" as="geometry"/>
                </mxCell>
                <mxCell id="28" style="edgeStyle=none;html=1;exitX=0.25;exitY=0;exitDx=0;exitDy=0;entryX=0.5;entryY=1;entryDx=0;entryDy=0;" parent="1" source="3" target="29" edge="1">
                    <mxGeometry relative="1" as="geometry">
                        <mxPoint x="490" y="172.5" as="sourcePoint"/>
                    </mxGeometry>
                </mxCell>
                <mxCell id="29" value="CourseID" style="ellipse;whiteSpace=wrap;html=1;fontStyle=4" parent="1" vertex="1">
                    <mxGeometry x="380" y="147.5" width="90" height="45" as="geometry"/>
                </mxCell>
                <mxCell id="30" style="edgeStyle=none;html=1;exitX=0.75;exitY=0;exitDx=0;exitDy=0;entryX=0.5;entryY=1;entryDx=0;entryDy=0;" parent="1" source="3" target="31" edge="1">
                    <mxGeometry relative="1" as="geometry">
                        <mxPoint x="534" y="221.25" as="sourcePoint"/>
                    </mxGeometry>
                </mxCell>
                <mxCell id="31" value="CourseName" style="ellipse;whiteSpace=wrap;html=1;" parent="1" vertex="1">
                    <mxGeometry x="480" y="145" width="90" height="45" as="geometry"/>
                </mxCell>
                <mxCell id="32" style="edgeStyle=none;html=1;exitX=1.008;exitY=0.4;exitDx=0;exitDy=0;entryX=0.089;entryY=0.803;entryDx=0;entryDy=0;exitPerimeter=0;entryPerimeter=0;" parent="1" source="3" target="33" edge="1">
                    <mxGeometry relative="1" as="geometry">
                        <mxPoint x="574" y="285" as="sourcePoint"/>
                    </mxGeometry>
                </mxCell>
                <mxCell id="33" value="Credits" style="ellipse;whiteSpace=wrap;html=1;" parent="1" vertex="1">
                    <mxGeometry x="550" y="200" width="90" height="50" as="geometry"/>
                </mxCell>
                <mxCell id="35" style="edgeStyle=none;html=1;exitX=1.004;exitY=0.365;exitDx=0;exitDy=0;entryX=0.089;entryY=0.803;entryDx=0;entryDy=0;exitPerimeter=0;entryPerimeter=0;" parent="1" source="4" target="36" edge="1">
                    <mxGeometry relative="1" as="geometry">
                        <mxPoint x="538.48" y="536" as="sourcePoint"/>
                    </mxGeometry>
                </mxCell>
                <mxCell id="36" value="ProfesorID" style="ellipse;whiteSpace=wrap;html=1;fontStyle=4" parent="1" vertex="1">
                    <mxGeometry x="553.52" y="482" width="90" height="50" as="geometry"/>
                </mxCell>
                <mxCell id="37" style="edgeStyle=none;html=1;exitX=1.002;exitY=0.622;exitDx=0;exitDy=0;entryX=0.055;entryY=0.258;entryDx=0;entryDy=0;exitPerimeter=0;entryPerimeter=0;" parent="1" source="4" target="38" edge="1">
                    <mxGeometry relative="1" as="geometry">
                        <mxPoint x="534.48" y="611.9" as="sourcePoint"/>
                    </mxGeometry>
                </mxCell>
                <mxCell id="38" value="Nombre" style="ellipse;whiteSpace=wrap;html=1;" parent="1" vertex="1">
                    <mxGeometry x="556" y="556" width="91.52" height="50" as="geometry"/>
                </mxCell>
                <mxCell id="39" style="edgeStyle=none;html=1;exitX=0.75;exitY=1;exitDx=0;exitDy=0;" parent="1" source="4" target="40" edge="1">
                    <mxGeometry relative="1" as="geometry">
                        <mxPoint x="466.0000000000001" y="606" as="sourcePoint"/>
                    </mxGeometry>
                </mxCell>
                <mxCell id="40" value="Apellido" style="ellipse;whiteSpace=wrap;html=1;" parent="1" vertex="1">
                    <mxGeometry x="491.76" y="608.6800000000001" width="91.52" height="50" as="geometry"/>
                </mxCell>
                <mxCell id="41" style="edgeStyle=none;html=1;exitX=0.614;exitY=1.036;exitDx=0;exitDy=0;exitPerimeter=0;" parent="1" source="5" target="42" edge="1">
                    <mxGeometry relative="1" as="geometry">
                        <mxPoint x="192.72000000000014" y="558.3399999999999" as="sourcePoint"/>
                    </mxGeometry>
                </mxCell>
                <mxCell id="42" value="DepartmentName" style="ellipse;whiteSpace=wrap;html=1;" parent="1" vertex="1">
                    <mxGeometry x="184.48" y="637" width="111.52" height="50" as="geometry"/>
                </mxCell>
                <mxCell id="43" style="edgeStyle=none;html=1;exitX=0;exitY=1;exitDx=0;exitDy=0;" parent="1" source="5" target="44" edge="1">
                    <mxGeometry relative="1" as="geometry">
                        <mxPoint x="89.68000000000006" y="527.8199999999999" as="sourcePoint"/>
                    </mxGeometry>
                </mxCell>
                <mxCell id="44" value="DepartmentID" style="ellipse;whiteSpace=wrap;html=1;fontStyle=4" parent="1" vertex="1">
                    <mxGeometry x="30.239999999999988" y="622" width="111.52" height="50" as="geometry"/>
                </mxCell>
                <mxCell id="46" value="CourseID" style="ellipse;html=1;fontStyle=0;verticalAlign=middle;fontSize=12;whiteSpace=wrap;fontColor=default;" vertex="1" parent="1">
                    <mxGeometry x="376" y="625.02" width="90" height="50.98" as="geometry"/>
                </mxCell>
                <mxCell id="47" style="edgeStyle=none;html=1;exitX=0.25;exitY=1;exitDx=0;exitDy=0;entryX=0.596;entryY=-0.012;entryDx=0;entryDy=0;entryPerimeter=0;" edge="1" parent="1" source="4" target="46">
                    <mxGeometry relative="1" as="geometry">
                        <mxPoint x="510" y="586" as="sourcePoint"/>
                        <mxPoint x="532.2252318414498" y="620.117789593585" as="targetPoint"/>
                    </mxGeometry>
                </mxCell>
                <mxCell id="48" value="" style="endArrow=none;dashed=1;html=1;fontSize=12;fontColor=default;endSize=6;" edge="1" parent="1">
                    <mxGeometry width="50" height="50" relative="1" as="geometry">
                        <mxPoint x="395.5" y="658" as="sourcePoint"/>
                        <mxPoint x="449" y="658" as="targetPoint"/>
                    </mxGeometry>
                </mxCell>
                <mxCell id="50" style="edgeStyle=none;html=1;exitX=1;exitY=0.75;exitDx=0;exitDy=0;entryX=0;entryY=0.5;entryDx=0;entryDy=0;" edge="1" parent="1" target="51" source="3">
                    <mxGeometry relative="1" as="geometry">
                        <mxPoint x="534.48" y="320" as="sourcePoint"/>
                    </mxGeometry>
                </mxCell>
                <mxCell id="51" value="StudentID" style="ellipse;whiteSpace=wrap;html=1;fontStyle=0" vertex="1" parent="1">
                    <mxGeometry x="557.52" y="264.1" width="90" height="50" as="geometry"/>
                </mxCell>
                <mxCell id="52" value="" style="endArrow=none;dashed=1;html=1;fontSize=12;fontColor=default;endSize=6;" edge="1" parent="1">
                    <mxGeometry width="50" height="50" relative="1" as="geometry">
                        <mxPoint x="575.77" y="300" as="sourcePoint"/>
                        <mxPoint x="629.27" y="300" as="targetPoint"/>
                    </mxGeometry>
                </mxCell>
                <mxCell id="53" value="Matricula" style="rhombus;whiteSpace=wrap;html=1;fontSize=12;fontColor=default;" vertex="1" parent="1">
                    <mxGeometry x="310" y="220.00000000000003" width="80" height="80" as="geometry"/>
                </mxCell>
                <mxCell id="55" value="" style="endArrow=none;html=1;exitX=0.5;exitY=1;exitDx=0;exitDy=0;entryX=0.5;entryY=0;entryDx=0;entryDy=0;" edge="1" parent="1" source="3" target="54">
                    <mxGeometry width="50" height="50" relative="1" as="geometry">
                        <mxPoint x="473.9999999999999" y="290" as="sourcePoint"/>
                        <mxPoint x="473.9999999999999" y="380" as="targetPoint"/>
                    </mxGeometry>
                </mxCell>
                <mxCell id="54" value="Imparte" style="rhombus;whiteSpace=wrap;html=1;fontSize=12;fontColor=default;" vertex="1" parent="1">
                    <mxGeometry x="434" y="380" width="80" height="80" as="geometry"/>
                </mxCell>
                <mxCell id="57" value="Asociado" style="rhombus;whiteSpace=wrap;html=1;fontSize=12;fontColor=default;" vertex="1" parent="1">
                    <mxGeometry x="306" y="506" width="80" height="80" as="geometry"/>
                </mxCell>
                <mxCell id="59" value="Ofrecido" style="rhombus;whiteSpace=wrap;html=1;fontSize=12;fontColor=default;" vertex="1" parent="1">
                    <mxGeometry x="186" y="370" width="80" height="80" as="geometry"/>
                </mxCell>
                <mxCell id="60" value="" style="endArrow=none;html=1;exitX=0.25;exitY=1;exitDx=0;exitDy=0;entryX=0.5;entryY=0;entryDx=0;entryDy=0;" edge="1" parent="1" source="3" target="59">
                    <mxGeometry width="50" height="50" relative="1" as="geometry">
                        <mxPoint x="484" y="300" as="sourcePoint"/>
                        <mxPoint x="484" y="390" as="targetPoint"/>
                    </mxGeometry>
                </mxCell>
                <mxCell id="61" value="" style="endArrow=none;html=1;exitX=0.5;exitY=1;exitDx=0;exitDy=0;entryX=0.5;entryY=0;entryDx=0;entryDy=0;" edge="1" parent="1" source="59" target="5">
                    <mxGeometry width="50" height="50" relative="1" as="geometry">
                        <mxPoint x="454" y="300" as="sourcePoint"/>
                        <mxPoint x="236" y="380" as="targetPoint"/>
                    </mxGeometry>
                </mxCell>
                <mxCell id="62" value="1:N" style="text;html=1;align=center;verticalAlign=middle;resizable=0;points=[];autosize=1;strokeColor=none;fillColor=none;rotation=90;" vertex="1" parent="1">
                    <mxGeometry x="270" y="395" width="40" height="30" as="geometry"/>
                </mxCell>
                <mxCell id="63" style="edgeStyle=none;html=1;exitX=0;exitY=0.25;exitDx=0;exitDy=0;entryX=1;entryY=0.5;entryDx=0;entryDy=0;" edge="1" parent="1" target="64" source="5">
                    <mxGeometry relative="1" as="geometry">
                        <mxPoint x="10" y="556" as="sourcePoint"/>
                    </mxGeometry>
                </mxCell>
                <mxCell id="64" value="ProfesorID" style="ellipse;whiteSpace=wrap;html=1;fontStyle=0" vertex="1" parent="1">
                    <mxGeometry x="20" y="500.1" width="99.04" height="49.9" as="geometry"/>
                </mxCell>
                <mxCell id="65" value="" style="endArrow=none;dashed=1;html=1;fontSize=12;fontColor=default;endSize=6;" edge="1" parent="1">
                    <mxGeometry width="50" height="50" relative="1" as="geometry">
                        <mxPoint x="42.76999999999998" y="532" as="sourcePoint"/>
                        <mxPoint x="96.26999999999998" y="532" as="targetPoint"/>
                    </mxGeometry>
                </mxCell>
                <mxCell id="67" style="edgeStyle=none;html=1;exitX=0.9;exitY=1.033;exitDx=0;exitDy=0;entryX=0;entryY=0;entryDx=0;entryDy=0;exitPerimeter=0;" edge="1" parent="1" target="68" source="3">
                    <mxGeometry relative="1" as="geometry">
                        <mxPoint x="729.28" y="390.9" as="sourcePoint"/>
                    </mxGeometry>
                </mxCell>
                <mxCell id="68" value="ProfesorID" style="ellipse;whiteSpace=wrap;html=1;fontStyle=0" vertex="1" parent="1">
                    <mxGeometry x="543.28" y="330.1" width="96.72" height="49.9" as="geometry"/>
                </mxCell>
                <mxCell id="69" value="" style="endArrow=none;dashed=1;html=1;fontSize=12;fontColor=default;endSize=6;" edge="1" parent="1">
                    <mxGeometry width="50" height="50" relative="1" as="geometry">
                        <mxPoint x="564.89" y="364" as="sourcePoint"/>
                        <mxPoint x="618.39" y="364" as="targetPoint"/>
                    </mxGeometry>
                </mxCell>
                <mxCell id="70" style="edgeStyle=none;html=1;exitX=0;exitY=0;exitDx=0;exitDy=0;entryX=0.5;entryY=1;entryDx=0;entryDy=0;fontStyle=0" edge="1" parent="1" target="71">
                    <mxGeometry relative="1" as="geometry">
                        <mxPoint x="156" y="531" as="sourcePoint"/>
                    </mxGeometry>
                </mxCell>
                <mxCell id="71" value="CourseID" style="ellipse;whiteSpace=wrap;html=1;fontStyle=0" vertex="1" parent="1">
                    <mxGeometry x="60" y="420" width="90" height="45" as="geometry"/>
                </mxCell>
                <mxCell id="72" value="" style="endArrow=none;dashed=1;html=1;fontSize=12;fontColor=default;endSize=6;" edge="1" parent="1">
                    <mxGeometry width="50" height="50" relative="1" as="geometry">
                        <mxPoint x="78.24999999999999" y="450" as="sourcePoint"/>
                        <mxPoint x="131.74999999999997" y="450" as="targetPoint"/>
                    </mxGeometry>
                </mxCell>
            </root>
        </mxGraphModel>
    </diagram>
</mxfile>